<svg width="44" height="44" viewBox="0 0 44 44" fill="none" xmlns="http://www.w3.org/2000/svg">
<path d="M14.667 23.833V10.083C14.667 9.35366 14.9567 8.65419 15.4724 8.13846C15.9882 7.62274 16.6876 7.33301 17.417 7.33301C18.1463 7.33301 18.8458 7.62274 19.3615 8.13846C19.8773 8.65419 20.167 9.35366 20.167 10.083V21.9997" stroke="black" stroke-width="2.75" stroke-linecap="round" stroke-linejoin="round"/>
<path d="M20.167 10.0837V6.41699C20.167 6.05586 20.2381 5.69826 20.3763 5.36461C20.5145 5.03097 20.7171 4.72781 20.9724 4.47245C21.2278 4.21709 21.531 4.01452 21.8646 3.87632C22.1983 3.73812 22.5559 3.66699 22.917 3.66699C23.2781 3.66699 23.6357 3.73812 23.9694 3.87632C24.303 4.01452 24.6062 4.21709 24.8615 4.47245C25.1169 4.72781 25.3195 5.03097 25.4577 5.36461C25.5959 5.69826 25.667 6.05586 25.667 6.41699V22.0003" stroke="black" stroke-width="2.75" stroke-linecap="round" stroke-linejoin="round"/>
<path d="M25.667 10.083C25.667 9.35366 25.9567 8.65419 26.4724 8.13846C26.9882 7.62274 27.6876 7.33301 28.417 7.33301C29.1463 7.33301 29.8458 7.62274 30.3615 8.13846C30.8773 8.65419 31.167 9.35366 31.167 10.083V21.9997" stroke="black" stroke-width="2.75" stroke-linecap="round" stroke-linejoin="round"/>
<path d="M31.167 13.75C31.167 13.0207 31.4567 12.3212 31.9725 11.8055C32.4882 11.2897 33.1877 11 33.917 11C34.6463 11 35.3458 11.2897 35.8615 11.8055C36.3773 12.3212 36.667 13.0207 36.667 13.75V29.3333C36.667 32.2507 35.5081 35.0486 33.4452 37.1115C31.3823 39.1744 28.5844 40.3333 25.667 40.3333H22.0003H22.3817C20.56 40.3336 18.7667 39.8815 17.1629 39.0175C15.5591 38.1535 14.1949 36.9048 13.193 35.3833C13.0728 35.2003 12.953 35.017 12.8337 34.8333C12.2617 33.9552 10.2542 30.4553 6.80934 24.332C6.45816 23.7078 6.36436 22.9712 6.54787 22.2789C6.73139 21.5867 7.17774 20.9933 7.792 20.625C8.44628 20.2324 9.21297 20.0697 9.9703 20.1627C10.7276 20.2557 11.4322 20.5991 11.972 21.1383L14.667 23.8333" stroke="black" stroke-width="2.75" stroke-linecap="round" stroke-linejoin="round"/>
</svg>
